<svg width="1920" height="892" viewBox="0 0 1920 892" fill="none" xmlns="http://www.w3.org/2000/svg">
<g clip-path="url(#clip0_440_396)">
<rect width="1920" height="1080" fill="white"/>
<g filter="url(#filter0_f_440_396)">
<path fill-rule="evenodd" clip-rule="evenodd" d="M529.554 804.286C558.113 904.485 655.173 1016.36 597.231 1102.95C533.643 1197.98 362.307 1118.25 272.289 1188.76C185.406 1256.81 217.765 1422.37 121.198 1475.8C25.6826 1528.64 -124.647 1529.59 -198.545 1449.24C-279.581 1361.14 -180.135 1209.09 -225.865 1098.47C-260.806 1013.95 -420.242 1004.28 -420.294 912.82C-420.345 822.451 -293.004 792.348 -226.074 731.628C-176.455 686.614 -123.574 650.976 -77.7732 602.082C10.2842 508.076 39.0852 332.616 166.343 312.702C280.03 294.912 363.368 429.802 431.748 522.351C492.082 604.009 501.725 706.646 529.554 804.286Z" fill="#528FB3"/>
<path fill-rule="evenodd" clip-rule="evenodd" d="M1184.59 -254.168C1267.76 -286.691 1361.62 -231.396 1441.75 -191.964C1521.53 -152.7 1617.53 -110.607 1646.84 -26.6856C1677.95 62.392 1576.18 155.667 1595.4 248.038C1614.06 337.709 1733.92 380.713 1750.36 470.817C1767.18 563.054 1746.64 669.91 1685.3 740.844C1623.83 811.929 1520.95 846.868 1426.97 844.787C1336.42 842.783 1273.9 714.728 1184.59 729.761C1067.89 749.404 1014.59 960.818 899.428 933.582C798.792 909.781 863.184 729.122 809.178 640.974C763.89 567.055 608.745 557.751 616.264 471.4C625.247 368.241 781.04 347.308 842.039 263.609C875.12 218.218 856.572 151.372 884.858 102.851C914.872 51.3665 970.646 22.9104 1008.97 -22.7358C1072.03 -97.8479 1093.23 -218.444 1184.59 -254.168Z" fill="#6BA1BE"/>
<path fill-rule="evenodd" clip-rule="evenodd" d="M386.742 -140.779C535.013 -119.255 689.355 -96.4469 782.013 21.1487C874.053 137.959 853.529 291.98 844.642 440.358C832.006 651.346 914.809 944.213 721.569 1030.39C527.844 1116.78 375.639 843.7 197.195 729.085C64.5346 643.877 -99.3848 605.211 -164.071 461.539C-247.751 275.677 -322.329 31.2833 -184.724 -119.188C-49.4705 -267.089 188.272 -169.59 386.742 -140.779Z" fill="#32739E"/>
<path fill-rule="evenodd" clip-rule="evenodd" d="M1934.52 -236.048C2037.65 -217.503 2096.51 -111.682 2180.53 -49.0687C2253.72 5.47126 2357.56 27.6224 2398.09 109.407C2438.41 190.757 2384.72 286.549 2391.73 377.072C2399.49 477.45 2480.42 576.944 2441.44 669.767C2402.9 761.548 2289.21 793.06 2199.19 835.532C2114.95 875.272 2024.95 931.21 1934.52 908.921C1844.54 886.743 1813.48 771.84 1735.79 721.315C1663.96 674.605 1566.71 682.56 1501.32 627.201C1422.72 560.669 1310.06 478.266 1329.14 377.072C1349.65 268.277 1531.11 271.985 1586.38 176.055C1641.72 79.9775 1559.96 -63.0946 1631.51 -147.795C1700.58 -229.552 1829.19 -254.989 1934.52 -236.048Z" fill="#27638D"/>
<path fill-rule="evenodd" clip-rule="evenodd" d="M735.121 -582.88C845.834 -575.509 946.471 -682.69 1052.69 -650.637C1172.46 -614.493 1301.27 -528.029 1324.18 -405.121C1347.22 -281.557 1223.23 -184.531 1159.85 -75.9677C1112.11 5.79025 1068.28 84.7952 999.894 150.29C920.825 226.013 843.295 313.686 735.121 330.782C618.875 349.154 493.22 318.661 401.598 244.848C311.979 172.648 291.722 51.0057 253.264 -57.4178C213.556 -169.368 150.236 -279.636 174.31 -395.949C199.653 -518.393 266.544 -655.509 385.243 -695.074C504.348 -734.774 609.842 -591.221 735.121 -582.88Z" fill="#1E537C"/>
<path fill-rule="evenodd" clip-rule="evenodd" d="M766.889 700.305C859.55 713.879 909.112 550.935 1002.71 554.182C1083.31 556.977 1126.67 653.885 1179.72 714.624C1234.51 777.359 1299.53 836.844 1320.09 917.559C1340.74 998.669 1310.04 1081.97 1294.2 1164.15C1277.93 1248.57 1299.04 1365.11 1225.32 1409.36C1139.52 1460.84 1022.27 1343.72 930.088 1382.66C844.817 1418.68 847.29 1557.14 766.889 1603.01C682.106 1651.38 572.959 1669.28 480.025 1639.42C386.765 1609.47 306.082 1532.23 266.979 1442.43C228.536 1354.15 238.376 1248.13 270.046 1157.2C297.768 1077.6 432.6 1051.76 432.394 967.472C432.096 845.905 253.249 767.206 268.796 646.637C280.937 552.478 400.868 469.677 495.27 479.848C612.684 492.5 650.042 683.189 766.889 700.305Z" fill="#11385D"/>
<path fill-rule="evenodd" clip-rule="evenodd" d="M1611.83 428.246C1721.53 460.835 1688.33 644.183 1764.96 729.248C1809.47 778.653 1896.31 758.292 1947.44 800.786C2009.36 852.244 2098.88 915.504 2084.45 994.76C2068.95 1079.89 1933.48 1081.17 1883.53 1151.79C1840.61 1212.48 1885.39 1320.81 1824.12 1362.85C1764.34 1403.87 1684.14 1343.14 1611.83 1338.23C1545.42 1333.72 1481.43 1344.65 1415.55 1335.11C1319.4 1321.18 1172.52 1359.79 1136.69 1269.39C1097.94 1171.63 1269.44 1099.33 1280.65 994.76C1289.98 907.682 1166.53 835.925 1192.13 752.181C1216.21 673.404 1330.21 669.749 1395.38 619.447C1472.91 559.612 1517.99 400.364 1611.83 428.246Z" fill="#3C7FA9"/>
</g>
<g opacity="0.1">
<path fill-rule="evenodd" clip-rule="evenodd" d="M330.53 799.522C229.554 742.403 134.234 689.392 4.92838 736.478C3.02321 737.172 0.916355 736.19 0.222595 734.285C-0.471165 732.38 0.510879 730.273 2.41605 729.579C135.235 681.214 233.388 736.136 334.145 793.131L335.761 794.045C436.194 850.86 539.678 909.401 684.929 874.594C686.9 874.122 688.882 875.337 689.354 877.309C689.827 879.28 688.612 881.262 686.64 881.734C538.571 917.217 432.847 857.406 332.697 800.748L330.53 799.522Z" fill="white"/>
<path fill-rule="evenodd" clip-rule="evenodd" d="M330.53 830.362C229.554 773.243 134.234 720.232 4.92838 767.318C3.02321 768.012 0.916355 767.03 0.222595 765.125C-0.471165 763.22 0.510879 761.113 2.41605 760.419C135.235 712.053 233.388 766.976 334.145 823.971L335.761 824.885C436.194 881.7 539.678 940.241 684.929 905.434C686.9 904.961 688.882 906.177 689.354 908.149C689.827 910.12 688.612 912.102 686.64 912.574C538.571 948.057 432.847 888.246 332.697 831.588L330.53 830.362Z" fill="white"/>
<path fill-rule="evenodd" clip-rule="evenodd" d="M330.53 861.204C229.554 804.085 134.234 751.074 4.92838 798.16C3.02321 798.854 0.916355 797.872 0.222595 795.967C-0.471165 794.061 0.510879 791.955 2.41605 791.261C135.235 742.895 233.388 797.818 334.145 854.813L335.761 855.727C436.194 912.542 539.678 971.083 684.929 936.276C686.9 935.803 688.882 937.019 689.354 938.99C689.827 940.962 688.612 942.943 686.64 943.416C538.571 978.898 432.847 919.087 332.697 862.43L330.53 861.204Z" fill="white"/>
<path fill-rule="evenodd" clip-rule="evenodd" d="M330.53 892.044C229.554 834.925 134.234 781.914 4.92838 829C3.02321 829.694 0.916355 828.712 0.222595 826.806C-0.471165 824.901 0.510879 822.794 2.41605 822.101C135.235 773.735 233.388 828.658 334.145 885.653L335.761 886.567C436.194 943.381 539.678 1001.92 684.929 967.116C686.9 966.643 688.882 967.858 689.354 969.83C689.827 971.802 688.612 973.783 686.64 974.256C538.571 1009.74 432.847 949.927 332.697 893.27L330.53 892.044Z" fill="white"/>
<path fill-rule="evenodd" clip-rule="evenodd" d="M330.53 922.885C229.554 865.767 134.234 812.756 4.92838 859.842C3.02321 860.535 0.916355 859.553 0.222595 857.648C-0.471165 855.743 0.510879 853.636 2.41605 852.942C135.235 804.577 233.388 859.5 334.145 916.495L335.761 917.408C436.194 974.223 539.678 1032.76 684.929 997.957C686.9 997.485 688.882 998.7 689.354 1000.67C689.827 1002.64 688.612 1004.63 686.64 1005.1C538.571 1040.58 432.847 980.769 332.697 924.111L330.53 922.885Z" fill="white"/>
<path fill-rule="evenodd" clip-rule="evenodd" d="M330.53 953.725C229.554 896.607 134.234 843.596 4.92838 890.682C3.02321 891.375 0.916355 890.393 0.222595 888.488C-0.471165 886.583 0.510879 884.476 2.41605 883.782C135.235 835.417 233.388 890.34 334.145 947.334L335.761 948.248C436.194 1005.06 539.678 1063.6 684.929 1028.8C686.9 1028.32 688.882 1029.54 689.354 1031.51C689.827 1033.48 688.612 1035.46 686.64 1035.94C538.571 1071.42 432.847 1011.61 332.697 954.951L330.53 953.725Z" fill="white"/>
</g>
<g opacity="0.1">
<path fill-rule="evenodd" clip-rule="evenodd" d="M1621.93 79.0735C1722.9 136.192 1818.22 189.203 1947.53 142.117C1949.43 141.423 1951.54 142.406 1952.23 144.311C1952.93 146.216 1951.95 148.323 1950.04 149.016C1817.22 197.382 1719.07 142.459 1618.31 85.4644L1616.7 84.5506C1516.26 27.7357 1412.78 -30.8055 1267.53 4.00159C1265.56 4.47408 1263.57 3.25871 1263.1 1.28697C1262.63 -0.684758 1263.84 -2.66621 1265.82 -3.1387C1413.88 -38.6211 1519.61 21.19 1619.76 77.8476L1621.93 79.0735Z" fill="white"/>
<path fill-rule="evenodd" clip-rule="evenodd" d="M1621.93 48.2337C1722.9 105.352 1818.22 158.363 1947.53 111.277C1949.43 110.584 1951.54 111.566 1952.23 113.471C1952.93 115.376 1951.95 117.483 1950.04 118.177C1817.22 166.542 1719.07 111.619 1618.31 54.6245L1616.7 53.7108C1516.26 -3.10419 1412.78 -61.6454 1267.53 -26.8383C1265.56 -26.3658 1263.57 -27.5811 1263.1 -29.5529C1262.63 -31.5246 1263.84 -33.5061 1265.82 -33.9785C1413.88 -69.4609 1519.61 -9.64985 1619.76 47.0078L1621.93 48.2337Z" fill="white"/>
<path fill-rule="evenodd" clip-rule="evenodd" d="M1621.93 17.3919C1722.9 74.5107 1818.22 127.522 1947.53 80.4356C1949.43 79.7418 1951.54 80.7239 1952.23 82.6291C1952.93 84.5342 1951.95 86.6411 1950.04 87.3348C1817.22 135.7 1719.07 80.7776 1618.31 23.7827L1616.7 22.869C1516.26 -33.946 1412.78 -92.4871 1267.53 -57.6801C1265.56 -57.2076 1263.57 -58.4229 1263.1 -60.3947C1262.63 -62.3664 1263.84 -64.3478 1265.82 -64.8203C1413.88 -100.303 1519.61 -40.4916 1619.76 16.166L1621.93 17.3919Z" fill="white"/>
<path fill-rule="evenodd" clip-rule="evenodd" d="M1621.93 -13.4479C1722.9 43.6708 1818.22 96.6818 1947.53 49.5958C1949.43 48.902 1951.54 49.884 1952.23 51.7892C1952.93 53.6944 1951.95 55.8012 1950.04 56.495C1817.22 104.861 1719.07 49.9378 1618.31 -7.05712L1616.7 -7.97089C1516.26 -64.7858 1412.78 -123.327 1267.53 -88.5199C1265.56 -88.0474 1263.57 -89.2628 1263.1 -91.2345C1262.63 -93.2062 1263.84 -95.1877 1265.82 -95.6602C1413.88 -131.143 1519.61 -71.3315 1619.76 -14.6739L1621.93 -13.4479Z" fill="white"/>
<path fill-rule="evenodd" clip-rule="evenodd" d="M1621.93 -44.2897C1722.9 12.829 1818.22 65.84 1947.53 18.754C1949.43 18.0602 1951.54 19.0423 1952.23 20.9474C1952.93 22.8526 1951.95 24.9594 1950.04 25.6532C1817.22 74.0188 1719.07 19.096 1618.31 -37.8989L1616.7 -38.8127C1516.26 -95.6276 1412.78 -154.169 1267.53 -119.362C1265.56 -118.889 1263.57 -120.105 1263.1 -122.076C1262.63 -124.048 1263.84 -126.029 1265.82 -126.502C1413.88 -161.984 1519.61 -102.173 1619.76 -45.5157L1621.93 -44.2897Z" fill="white"/>
<path fill-rule="evenodd" clip-rule="evenodd" d="M1621.93 -75.1296C1722.9 -18.0108 1818.22 35.0001 1947.53 -12.0859C1949.43 -12.7796 1951.54 -11.7976 1952.23 -9.89242C1952.93 -7.98725 1951.95 -5.88039 1950.04 -5.18663C1817.22 43.179 1719.07 -11.7439 1618.31 -68.7388L1616.7 -69.6525C1516.26 -126.467 1412.78 -185.009 1267.53 -150.202C1265.56 -149.729 1263.57 -150.944 1263.1 -152.916C1262.63 -154.888 1263.84 -156.869 1265.82 -157.342C1413.88 -192.824 1519.61 -133.013 1619.76 -76.3555L1621.93 -75.1296Z" fill="white"/>
</g>
</g>
<defs>
<filter id="filter0_f_440_396" x="-720.294" y="-1002" width="3472.29" height="2956" filterUnits="userSpaceOnUse" color-interpolation-filters="sRGB">
<feFlood flood-opacity="0" result="BackgroundImageFix"/>
<feBlend mode="normal" in="SourceGraphic" in2="BackgroundImageFix" result="shape"/>
<feGaussianBlur stdDeviation="150" result="effect1_foregroundBlur_440_396"/>
</filter>
<clipPath id="clip0_440_396">
<rect width="1920" height="892" fill="white"/>
</clipPath>
</defs>
</svg>
