<svg width="1970" height="1153" viewBox="0 0 1970 1153" fill="none" xmlns="http://www.w3.org/2000/svg">
<g opacity="0.1">
<path fill-rule="evenodd" clip-rule="evenodd" d="M330.53 905.522C229.554 848.403 134.234 795.392 4.92838 842.478C3.02321 843.172 0.916355 842.19 0.222595 840.285C-0.471165 838.38 0.510879 836.273 2.41605 835.579C135.235 787.214 233.388 842.136 334.145 899.131L335.761 900.045C436.194 956.86 539.678 1015.4 684.929 980.594C686.9 980.122 688.882 981.337 689.354 983.309C689.827 985.28 688.612 987.262 686.64 987.734C538.571 1023.22 432.847 963.406 332.697 906.748L330.53 905.522Z" fill="white"/>
<path fill-rule="evenodd" clip-rule="evenodd" d="M330.53 936.362C229.554 879.243 134.234 826.232 4.92838 873.318C3.02321 874.012 0.916355 873.03 0.222595 871.125C-0.471165 869.22 0.510879 867.113 2.41605 866.419C135.235 818.053 233.388 872.976 334.145 929.971L335.761 930.885C436.194 987.7 539.678 1046.24 684.929 1011.43C686.9 1010.96 688.882 1012.18 689.354 1014.15C689.827 1016.12 688.612 1018.1 686.64 1018.57C538.571 1054.06 432.847 994.246 332.697 937.588L330.53 936.362Z" fill="white"/>
<path fill-rule="evenodd" clip-rule="evenodd" d="M330.53 967.204C229.554 910.085 134.234 857.074 4.92838 904.16C3.02321 904.854 0.916355 903.872 0.222595 901.967C-0.471165 900.061 0.510879 897.955 2.41605 897.261C135.235 848.895 233.388 903.818 334.145 960.813L335.761 961.727C436.194 1018.54 539.678 1077.08 684.929 1042.28C686.9 1041.8 688.882 1043.02 689.354 1044.99C689.827 1046.96 688.612 1048.94 686.64 1049.42C538.571 1084.9 432.847 1025.09 332.697 968.43L330.53 967.204Z" fill="white"/>
<path fill-rule="evenodd" clip-rule="evenodd" d="M330.53 998.044C229.554 940.925 134.234 887.914 4.92838 935C3.02321 935.694 0.916355 934.712 0.222595 932.806C-0.471165 930.901 0.510879 928.794 2.41605 928.101C135.235 879.735 233.388 934.658 334.145 991.653L335.761 992.567C436.194 1049.38 539.678 1107.92 684.929 1073.12C686.9 1072.64 688.882 1073.86 689.354 1075.83C689.827 1077.8 688.612 1079.78 686.64 1080.26C538.571 1115.74 432.847 1055.93 332.697 999.27L330.53 998.044Z" fill="white"/>
<path fill-rule="evenodd" clip-rule="evenodd" d="M330.53 1028.89C229.554 971.767 134.234 918.756 4.92838 965.842C3.02321 966.535 0.916355 965.553 0.222595 963.648C-0.471165 961.743 0.510879 959.636 2.41605 958.942C135.235 910.577 233.388 965.5 334.145 1022.49L335.761 1023.41C436.194 1080.22 539.678 1138.76 684.929 1103.96C686.9 1103.48 688.882 1104.7 689.354 1106.67C689.827 1108.64 688.612 1110.63 686.64 1111.1C538.571 1146.58 432.847 1086.77 332.697 1030.11L330.53 1028.89Z" fill="white"/>
<path fill-rule="evenodd" clip-rule="evenodd" d="M330.53 1059.73C229.554 1002.61 134.234 949.596 4.92838 996.682C3.02321 997.375 0.916355 996.393 0.222595 994.488C-0.471165 992.583 0.510879 990.476 2.41605 989.782C135.235 941.417 233.388 996.34 334.145 1053.33L335.761 1054.25C436.194 1111.06 539.678 1169.6 684.929 1134.8C686.9 1134.32 688.882 1135.54 689.354 1137.51C689.827 1139.48 688.612 1141.46 686.64 1141.94C538.571 1177.42 432.847 1117.61 332.697 1060.95L330.53 1059.73Z" fill="white"/>
</g>
<g opacity="0.1">
<path fill-rule="evenodd" clip-rule="evenodd" d="M1638.93 247.074C1739.9 304.192 1835.22 357.203 1964.53 310.117C1966.43 309.423 1968.54 310.406 1969.23 312.311C1969.93 314.216 1968.95 316.323 1967.04 317.016C1834.22 365.382 1736.07 310.459 1635.31 253.464L1633.7 252.551C1533.26 195.736 1429.78 137.194 1284.53 172.002C1282.56 172.474 1280.57 171.259 1280.1 169.287C1279.63 167.315 1280.84 165.334 1282.82 164.861C1430.88 129.379 1536.61 189.19 1636.76 245.848L1638.93 247.074Z" fill="white"/>
<path fill-rule="evenodd" clip-rule="evenodd" d="M1638.93 216.234C1739.9 273.352 1835.22 326.363 1964.53 279.277C1966.43 278.584 1968.54 279.566 1969.23 281.471C1969.93 283.376 1968.95 285.483 1967.04 286.177C1834.22 334.542 1736.07 279.619 1635.31 222.625L1633.7 221.711C1533.26 164.896 1429.78 106.355 1284.53 141.162C1282.56 141.634 1280.57 140.419 1280.1 138.447C1279.63 136.475 1280.84 134.494 1282.82 134.021C1430.88 98.5391 1536.61 158.35 1636.76 215.008L1638.93 216.234Z" fill="white"/>
<path fill-rule="evenodd" clip-rule="evenodd" d="M1638.93 185.392C1739.9 242.511 1835.22 295.522 1964.53 248.436C1966.43 247.742 1968.54 248.724 1969.23 250.629C1969.93 252.534 1968.95 254.641 1967.04 255.335C1834.22 303.7 1736.07 248.778 1635.31 191.783L1633.7 190.869C1533.26 134.054 1429.78 75.5128 1284.53 110.32C1282.56 110.792 1280.57 109.577 1280.1 107.605C1279.63 105.634 1280.84 103.652 1282.82 103.18C1430.88 67.6973 1536.61 127.508 1636.76 184.166L1638.93 185.392Z" fill="white"/>
<path fill-rule="evenodd" clip-rule="evenodd" d="M1638.93 154.551C1739.9 211.67 1835.22 264.681 1964.53 217.595C1966.43 216.901 1968.54 217.883 1969.23 219.788C1969.93 221.693 1968.95 223.8 1967.04 224.494C1834.22 272.86 1736.07 217.937 1635.31 160.942L1633.7 160.028C1533.26 103.213 1429.78 44.672 1284.53 79.4791C1282.56 79.9516 1280.57 78.7363 1280.1 76.7645C1279.63 74.7928 1280.84 72.8113 1282.82 72.3388C1430.88 36.8565 1536.61 96.6675 1636.76 153.325L1638.93 154.551Z" fill="white"/>
<path fill-rule="evenodd" clip-rule="evenodd" d="M1638.93 123.711C1739.9 180.83 1835.22 233.841 1964.53 186.755C1966.43 186.061 1968.54 187.043 1969.23 188.948C1969.93 190.854 1968.95 192.96 1967.04 193.654C1834.22 242.02 1736.07 187.097 1635.31 130.102L1633.7 129.188C1533.26 72.3733 1429.78 13.8322 1284.53 48.6393C1282.56 49.1118 1280.57 47.8964 1280.1 45.9247C1279.63 43.9529 1280.84 41.9715 1282.82 41.499C1430.88 6.01662 1536.61 65.8277 1636.76 122.485L1638.93 123.711Z" fill="white"/>
<path fill-rule="evenodd" clip-rule="evenodd" d="M1638.93 92.8704C1739.9 149.989 1835.22 203 1964.53 155.914C1966.43 155.22 1968.54 156.202 1969.23 158.108C1969.93 160.013 1968.95 162.12 1967.04 162.813C1834.22 211.179 1736.07 156.256 1635.31 99.2612L1633.7 98.3475C1533.26 41.5325 1429.78 -17.0086 1284.53 17.7985C1282.56 18.271 1280.57 17.0556 1280.1 15.0838C1279.63 13.1121 1280.84 11.1307 1282.82 10.6582C1430.88 -24.8242 1536.61 34.9869 1636.76 91.6445L1638.93 92.8704Z" fill="white"/>
</g>
</svg>
