<svg width="657" height="247" viewBox="0 0 657 247" fill="none" xmlns="http://www.w3.org/2000/svg">
<g opacity="0.1">
<path fill-rule="evenodd" clip-rule="evenodd" d="M358.926 158.074C459.902 215.193 555.222 268.204 684.528 221.118C686.433 220.424 688.54 221.406 689.234 223.311C689.927 225.217 688.945 227.323 687.04 228.017C554.221 276.383 456.068 221.46 355.311 164.465L353.696 163.551C253.262 106.736 149.778 48.1952 4.5276 83.0023C2.55592 83.4748 0.574416 82.2594 0.101943 80.2877C-0.37053 78.316 0.844802 76.3345 2.81654 75.862C150.885 40.3797 256.609 100.191 356.759 156.848L358.926 158.074Z" fill="white"/>
<path fill-rule="evenodd" clip-rule="evenodd" d="M358.926 127.233C459.902 184.352 555.222 237.363 684.528 190.277C686.433 189.583 688.54 190.565 689.234 192.471C689.927 194.376 688.945 196.483 687.04 197.176C554.221 245.542 456.068 190.619 355.311 133.624L353.696 132.711C253.262 75.8956 149.778 17.3544 4.5276 52.1615C2.55592 52.634 0.574416 51.4186 0.101943 49.4469C-0.37053 47.4752 0.844802 45.4937 2.81654 45.0212C150.885 9.53883 256.609 69.3499 356.759 126.008L358.926 127.233Z" fill="white"/>
<path fill-rule="evenodd" clip-rule="evenodd" d="M358.926 96.3929C459.902 153.512 555.222 206.523 684.528 159.437C686.433 158.743 688.54 159.725 689.234 161.63C689.927 163.535 688.945 165.642 687.04 166.336C554.221 214.701 456.068 159.779 355.311 102.784L353.696 101.87C253.262 45.055 149.778 -13.4862 4.5276 21.3209C2.55592 21.7934 0.574416 20.578 0.101943 18.6063C-0.37053 16.6346 0.844802 14.6531 2.81654 14.1806C150.885 -21.3017 256.609 38.5093 356.759 95.1669L358.926 96.3929Z" fill="white"/>
<path fill-rule="evenodd" clip-rule="evenodd" d="M358.926 65.5523C459.902 122.671 555.222 175.682 684.528 128.596C686.433 127.902 688.54 128.884 689.234 130.789C689.927 132.695 688.945 134.801 687.04 135.495C554.221 183.861 456.068 128.938 355.311 71.9431L353.696 71.0293C253.262 14.2144 149.778 -44.3268 4.5276 -9.51967C2.55588 -9.04718 0.574409 -10.2625 0.101943 -12.2343C-0.370582 -14.206 0.844818 -16.1875 2.81654 -16.66C150.885 -52.1423 256.609 7.66874 356.759 64.3264L358.926 65.5523Z" fill="white"/>
<path fill-rule="evenodd" clip-rule="evenodd" d="M358.926 34.7117C459.902 91.8305 555.222 144.841 684.528 97.7554C686.433 97.0617 688.54 98.0437 689.234 99.9489C689.927 101.854 688.945 103.961 687.04 104.655C554.221 153.02 456.068 98.0974 355.311 41.1025L353.696 40.1888C253.262 -16.6262 149.778 -75.1673 4.5276 -40.3602C2.55592 -39.8877 0.574416 -41.1031 0.101943 -43.0748C-0.37053 -45.0466 0.844802 -47.028 2.81654 -47.5005C150.885 -82.9829 256.609 -23.1718 356.759 33.4858L358.926 34.7117Z" fill="white"/>
<path fill-rule="evenodd" clip-rule="evenodd" d="M358.926 3.8709C459.902 60.9897 555.222 114.001 684.528 66.9146C686.433 66.2209 688.54 67.2029 689.234 69.1081C689.927 71.0132 688.945 73.1201 687.04 73.8139C554.221 122.179 456.068 67.2566 355.311 10.2617L353.696 9.34795C253.262 -47.467 149.778 -106.008 4.5276 -71.201C2.55592 -70.7286 0.574416 -71.9439 0.101943 -73.9157C-0.37053 -75.8874 0.844802 -77.8688 2.81654 -78.3413C150.885 -113.824 256.609 -54.0126 356.759 2.64497L358.926 3.8709Z" fill="white"/>
</g>
</svg>
