<svg width="1920" height="1080" viewBox="0 0 1920 1080" fill="none" xmlns="http://www.w3.org/2000/svg">
<g clip-path="url(#clip0_270_260)">
<rect width="1920" height="1080" fill="white"/>
<g filter="url(#filter0_f_270_260)">
<path fill-rule="evenodd" clip-rule="evenodd" d="M529.555 804.286C558.113 904.484 655.173 1016.36 597.232 1102.95C533.643 1197.98 362.308 1118.25 272.289 1188.76C185.406 1256.81 217.765 1422.37 121.198 1475.8C25.6829 1528.64 -124.647 1529.58 -198.545 1449.24C-279.581 1361.14 -180.135 1209.09 -225.865 1098.47C-260.806 1013.95 -420.242 1004.28 -420.294 912.82C-420.345 822.451 -293.004 792.348 -226.074 731.628C-176.455 686.613 -123.573 650.976 -77.7729 602.081C10.2844 508.075 39.0855 332.615 166.344 312.701C280.031 294.911 363.368 429.801 431.748 522.35C492.082 604.008 501.725 706.645 529.555 804.286Z" fill="#528FB3"/>
<path fill-rule="evenodd" clip-rule="evenodd" d="M1184.59 -254.168C1267.76 -286.691 1361.62 -231.396 1441.75 -191.964C1521.53 -152.7 1617.53 -110.607 1646.84 -26.6856C1677.95 62.392 1576.18 155.667 1595.4 248.038C1614.06 337.709 1733.92 380.713 1750.36 470.817C1767.18 563.054 1746.64 669.91 1685.3 740.844C1623.83 811.929 1520.95 846.868 1426.97 844.787C1336.42 842.783 1273.9 714.728 1184.59 729.761C1067.89 749.404 1014.59 960.818 899.428 933.582C798.792 909.781 863.184 729.122 809.178 640.974C763.89 567.055 608.745 557.751 616.264 471.4C625.247 368.241 781.04 347.308 842.039 263.609C875.12 218.218 856.572 151.372 884.858 102.851C914.872 51.3665 970.646 22.9104 1008.97 -22.7358C1072.03 -97.8479 1093.23 -218.444 1184.59 -254.168Z" fill="#6BA1BE"/>
<path fill-rule="evenodd" clip-rule="evenodd" d="M386.743 -140.779C535.013 -119.255 689.356 -96.4469 782.014 21.1487C874.053 137.959 853.529 291.98 844.643 440.358C832.006 651.346 914.809 944.213 721.57 1030.39C527.845 1116.78 375.639 843.7 197.196 729.085C64.535 643.877 -99.3845 605.211 -164.07 461.539C-247.751 275.677 -322.328 31.2833 -184.724 -119.188C-49.4702 -267.089 188.272 -169.59 386.743 -140.779Z" fill="#32739E"/>
<path fill-rule="evenodd" clip-rule="evenodd" d="M1934.52 -236.048C2037.65 -217.503 2096.51 -111.682 2180.53 -49.0687C2253.72 5.47126 2357.56 27.6224 2398.09 109.407C2438.41 190.757 2384.72 286.549 2391.73 377.072C2399.49 477.45 2480.42 576.944 2441.44 669.767C2402.9 761.548 2289.21 793.06 2199.19 835.532C2114.95 875.272 2024.95 931.21 1934.52 908.921C1844.54 886.743 1813.48 771.84 1735.79 721.315C1663.96 674.605 1566.71 682.56 1501.32 627.201C1422.72 560.669 1310.06 478.266 1329.14 377.072C1349.65 268.277 1531.11 271.985 1586.38 176.055C1641.72 79.9775 1559.96 -63.0946 1631.51 -147.795C1700.58 -229.552 1829.19 -254.989 1934.52 -236.048Z" fill="#27638D"/>
<path fill-rule="evenodd" clip-rule="evenodd" d="M735.122 -582.88C845.834 -575.509 946.471 -682.69 1052.69 -650.637C1172.47 -614.493 1301.27 -528.029 1324.18 -405.121C1347.22 -281.557 1223.23 -184.531 1159.85 -75.9677C1112.11 5.79025 1068.28 84.7952 999.894 150.29C920.825 226.013 843.296 313.686 735.122 330.782C618.876 349.154 493.22 318.661 401.598 244.848C311.979 172.648 291.722 51.0057 253.265 -57.4178C213.556 -169.368 150.237 -279.636 174.31 -395.949C199.653 -518.393 266.544 -655.509 385.243 -695.074C504.348 -734.774 609.843 -591.221 735.122 -582.88Z" fill="#1E537C"/>
<path fill-rule="evenodd" clip-rule="evenodd" d="M766.889 700.305C859.55 713.879 909.113 550.935 1002.71 554.182C1083.31 556.977 1126.67 653.885 1179.72 714.624C1234.51 777.359 1299.53 836.844 1320.09 917.559C1340.74 998.669 1310.04 1081.97 1294.2 1164.15C1277.93 1248.57 1299.04 1365.11 1225.32 1409.36C1139.52 1460.84 1022.27 1343.72 930.088 1382.66C844.818 1418.68 847.29 1557.14 766.889 1603.01C682.106 1651.38 572.96 1669.28 480.025 1639.42C386.766 1609.47 306.082 1532.23 266.979 1442.43C228.537 1354.15 238.376 1248.13 270.046 1157.2C297.768 1077.6 432.6 1051.76 432.394 967.472C432.097 845.905 253.249 767.206 268.796 646.637C280.937 552.478 400.869 469.677 495.27 479.848C612.684 492.5 650.042 683.189 766.889 700.305Z" fill="#11385D"/>
<path fill-rule="evenodd" clip-rule="evenodd" d="M1611.83 428.246C1721.53 460.835 1688.33 644.183 1764.96 729.248C1809.47 778.653 1896.31 758.292 1947.44 800.786C2009.36 852.244 2098.88 915.504 2084.45 994.76C2068.95 1079.89 1933.48 1081.17 1883.53 1151.79C1840.61 1212.48 1885.39 1320.81 1824.12 1362.85C1764.34 1403.87 1684.14 1343.14 1611.83 1338.23C1545.42 1333.72 1481.43 1344.65 1415.55 1335.11C1319.4 1321.18 1172.52 1359.79 1136.69 1269.39C1097.94 1171.63 1269.44 1099.33 1280.65 994.76C1289.98 907.682 1166.53 835.925 1192.13 752.181C1216.21 673.404 1330.21 669.749 1395.38 619.447C1472.91 559.612 1517.99 400.364 1611.83 428.246Z" fill="#3C7FA9"/>
</g>
</g>
<defs>
<filter id="filter0_f_270_260" x="-720.294" y="-1002" width="3472.29" height="2956" filterUnits="userSpaceOnUse" color-interpolation-filters="sRGB">
<feFlood flood-opacity="0" result="BackgroundImageFix"/>
<feBlend mode="normal" in="SourceGraphic" in2="BackgroundImageFix" result="shape"/>
<feGaussianBlur stdDeviation="150" result="effect1_foregroundBlur_270_260"/>
</filter>
<clipPath id="clip0_270_260">
<rect width="1920" height="1080" fill="white"/>
</clipPath>
</defs>
</svg>
