<svg width="1920" height="1080" viewBox="0 0 1920 1080" fill="none" xmlns="http://www.w3.org/2000/svg">
<g clip-path="url(#clip0_205_241)">
<rect width="1920" height="1080" fill="white"/>
<g filter="url(#filter0_f_205_241)">
<path fill-rule="evenodd" clip-rule="evenodd" d="M529.554 804.286C558.113 904.484 655.173 1016.36 597.231 1102.95C533.643 1197.98 362.307 1118.25 272.289 1188.76C185.406 1256.81 217.765 1422.37 121.198 1475.8C25.6825 1528.64 -124.647 1529.58 -198.545 1449.24C-279.581 1361.14 -180.135 1209.09 -225.865 1098.47C-260.806 1013.95 -420.242 1004.28 -420.294 912.82C-420.346 822.451 -293.004 792.348 -226.074 731.628C-176.455 686.613 -123.574 650.976 -77.7732 602.081C10.2841 508.075 39.0852 332.615 166.343 312.701C280.03 294.911 363.368 429.801 431.748 522.35C492.082 604.008 501.725 706.645 529.554 804.286Z" fill="#528FB3"/>
<path fill-rule="evenodd" clip-rule="evenodd" d="M1184.59 -254.168C1267.76 -286.691 1361.62 -231.396 1441.75 -191.964C1521.53 -152.7 1617.53 -110.607 1646.84 -26.6856C1677.95 62.392 1576.18 155.667 1595.4 248.038C1614.06 337.709 1733.92 380.713 1750.36 470.817C1767.18 563.054 1746.64 669.91 1685.3 740.844C1623.83 811.929 1520.95 846.868 1426.97 844.787C1336.41 842.783 1273.9 714.728 1184.59 729.761C1067.89 749.404 1014.59 960.818 899.428 933.582C798.792 909.781 863.183 729.122 809.178 640.974C763.89 567.055 608.745 557.751 616.264 471.4C625.247 368.241 781.04 347.308 842.039 263.609C875.119 218.218 856.572 151.372 884.858 102.852C914.872 51.3665 970.646 22.9105 1008.97 -22.7358C1072.03 -97.8479 1093.23 -218.444 1184.59 -254.168Z" fill="#6BA1BE"/>
<path fill-rule="evenodd" clip-rule="evenodd" d="M386.742 -140.779C535.013 -119.255 689.355 -96.4469 782.013 21.1487C874.053 137.959 853.529 291.98 844.642 440.358C832.006 651.346 914.809 944.213 721.569 1030.39C527.844 1116.78 375.639 843.7 197.195 729.085C64.5346 643.877 -99.3848 605.211 -164.071 461.539C-247.751 275.677 -322.329 31.2833 -184.724 -119.188C-49.4705 -267.089 188.272 -169.59 386.742 -140.779Z" fill="#32739E"/>
<path fill-rule="evenodd" clip-rule="evenodd" d="M1934.52 -236.048C2037.65 -217.503 2096.51 -111.682 2180.53 -49.0687C2253.72 5.47127 2357.56 27.6224 2398.09 109.407C2438.41 190.757 2384.72 286.549 2391.73 377.072C2399.49 477.45 2480.42 576.944 2441.44 669.767C2402.9 761.548 2289.21 793.06 2199.19 835.532C2114.95 875.272 2024.95 931.21 1934.52 908.921C1844.54 886.743 1813.48 771.84 1735.79 721.315C1663.96 674.605 1566.71 682.56 1501.32 627.201C1422.72 560.669 1310.06 478.266 1329.14 377.072C1349.65 268.277 1531.11 271.985 1586.38 176.055C1641.72 79.9775 1559.96 -63.0946 1631.51 -147.795C1700.58 -229.552 1829.19 -254.989 1934.52 -236.048Z" fill="#27638D"/>
<path fill-rule="evenodd" clip-rule="evenodd" d="M735.121 -582.88C845.834 -575.509 946.471 -682.69 1052.69 -650.637C1172.46 -614.493 1301.27 -528.029 1324.18 -405.121C1347.22 -281.557 1223.23 -184.531 1159.85 -75.9677C1112.11 5.79022 1068.28 84.7952 999.894 150.29C920.825 226.013 843.295 313.686 735.121 330.782C618.875 349.154 493.22 318.661 401.598 244.847C311.979 172.648 291.722 51.0057 253.264 -57.4178C213.556 -169.368 150.236 -279.636 174.31 -395.949C199.653 -518.393 266.544 -655.509 385.243 -695.074C504.348 -734.774 609.842 -591.221 735.121 -582.88Z" fill="#1E537C"/>
<path fill-rule="evenodd" clip-rule="evenodd" d="M766.889 700.305C859.55 713.879 909.112 550.935 1002.71 554.182C1083.31 556.977 1126.67 653.885 1179.72 714.624C1234.51 777.359 1299.53 836.844 1320.09 917.559C1340.74 998.669 1310.04 1081.97 1294.2 1164.15C1277.93 1248.57 1299.04 1365.11 1225.32 1409.36C1139.52 1460.84 1022.27 1343.72 930.088 1382.66C844.817 1418.68 847.29 1557.14 766.889 1603.01C682.106 1651.38 572.96 1669.28 480.025 1639.42C386.765 1609.47 306.082 1532.23 266.979 1442.43C228.536 1354.15 238.376 1248.13 270.046 1157.2C297.768 1077.6 432.6 1051.76 432.394 967.472C432.096 845.905 253.249 767.206 268.796 646.637C280.937 552.478 400.868 469.677 495.27 479.848C612.684 492.5 650.042 683.189 766.889 700.305Z" fill="#11385D"/>
<path fill-rule="evenodd" clip-rule="evenodd" d="M1611.83 428.246C1721.53 460.835 1688.33 644.183 1764.96 729.248C1809.47 778.653 1896.31 758.292 1947.44 800.786C2009.36 852.244 2098.88 915.504 2084.45 994.76C2068.95 1079.89 1933.48 1081.17 1883.53 1151.79C1840.61 1212.48 1885.39 1320.81 1824.12 1362.85C1764.34 1403.87 1684.14 1343.14 1611.83 1338.23C1545.42 1333.72 1481.43 1344.65 1415.55 1335.11C1319.4 1321.18 1172.52 1359.79 1136.69 1269.39C1097.94 1171.63 1269.44 1099.33 1280.65 994.76C1289.98 907.682 1166.53 835.925 1192.13 752.181C1216.21 673.404 1330.21 669.749 1395.38 619.447C1472.91 559.612 1517.99 400.364 1611.83 428.246Z" fill="#3C7FA9"/>
</g>
<g opacity="0.1">
<path fill-rule="evenodd" clip-rule="evenodd" d="M281.53 1002.52C180.554 945.403 85.2338 892.392 -44.0716 939.478C-45.9768 940.172 -48.0836 939.19 -48.7774 937.285C-49.4712 935.38 -48.4891 933.273 -46.5839 932.579C86.2354 884.214 184.388 939.136 285.145 996.131L286.761 997.045C387.194 1053.86 490.678 1112.4 635.929 1077.59C637.9 1077.12 639.882 1078.34 640.354 1080.31C640.827 1082.28 639.612 1084.26 637.64 1084.73C489.571 1120.22 383.847 1060.41 283.697 1003.75L281.53 1002.52Z" fill="white"/>
<path fill-rule="evenodd" clip-rule="evenodd" d="M281.53 1033.36C180.554 976.244 85.2338 923.233 -44.0716 970.319C-45.9768 971.013 -48.0836 970.031 -48.7774 968.126C-49.4712 966.221 -48.4891 964.114 -46.5839 963.42C86.2354 915.054 184.388 969.977 285.145 1026.97L286.761 1027.89C387.194 1084.7 490.678 1143.24 635.929 1108.43C637.9 1107.96 639.882 1109.18 640.354 1111.15C640.827 1113.12 639.612 1115.1 637.64 1115.58C489.571 1151.06 383.847 1091.25 283.697 1034.59L281.53 1033.36Z" fill="white"/>
<path fill-rule="evenodd" clip-rule="evenodd" d="M281.53 1064.2C180.554 1007.08 85.2338 954.074 -44.0716 1001.16C-45.9768 1001.85 -48.0836 1000.87 -48.7774 998.966C-49.4712 997.061 -48.4891 994.954 -46.5839 994.26C86.2354 945.895 184.388 1000.82 285.145 1057.81L286.761 1058.73C387.194 1115.54 490.678 1174.08 635.929 1139.28C637.9 1138.8 639.882 1140.02 640.354 1141.99C640.827 1143.96 639.612 1145.94 637.64 1146.42C489.571 1181.9 383.847 1122.09 283.697 1065.43L281.53 1064.2Z" fill="white"/>
<path fill-rule="evenodd" clip-rule="evenodd" d="M281.53 1095.04C180.554 1037.93 85.2338 984.914 -44.0716 1032C-45.9768 1032.69 -48.0836 1031.71 -48.7774 1029.81C-49.4712 1027.9 -48.4891 1025.79 -46.5839 1025.1C86.2354 976.736 184.388 1031.66 285.145 1088.65L286.761 1089.57C387.194 1146.38 490.678 1204.92 635.929 1170.12C637.9 1169.64 639.882 1170.86 640.354 1172.83C640.827 1174.8 639.612 1176.78 637.64 1177.26C489.571 1212.74 383.847 1152.93 283.697 1096.27L281.53 1095.04Z" fill="white"/>
<path fill-rule="evenodd" clip-rule="evenodd" d="M281.53 1125.88C180.554 1068.77 85.2338 1015.76 -44.0716 1062.84C-45.9768 1063.54 -48.0836 1062.55 -48.7774 1060.65C-49.4712 1058.74 -48.4891 1056.64 -46.5839 1055.94C86.2354 1007.58 184.388 1062.5 285.145 1119.49L286.761 1120.41C387.194 1177.22 490.678 1235.76 635.929 1200.96C637.9 1200.48 639.882 1201.7 640.354 1203.67C640.827 1205.64 639.612 1207.62 637.64 1208.1C489.571 1243.58 383.847 1183.77 283.697 1127.11L281.53 1125.88Z" fill="white"/>
<path fill-rule="evenodd" clip-rule="evenodd" d="M281.53 1156.73C180.554 1099.61 85.2338 1046.6 -44.0716 1093.68C-45.9768 1094.38 -48.0836 1093.39 -48.7774 1091.49C-49.4712 1089.58 -48.4891 1087.48 -46.5839 1086.78C86.2354 1038.42 184.388 1093.34 285.145 1150.33L286.761 1151.25C387.194 1208.06 490.678 1266.6 635.929 1231.8C637.9 1231.32 639.882 1232.54 640.354 1234.51C640.827 1236.48 639.612 1238.46 637.64 1238.94C489.571 1274.42 383.847 1214.61 283.697 1157.95L281.53 1156.73Z" fill="white"/>
</g>
<g opacity="0.1">
<path fill-rule="evenodd" clip-rule="evenodd" d="M1621.93 158.074C1722.9 215.193 1818.22 268.204 1947.53 221.118C1949.43 220.424 1951.54 221.406 1952.23 223.311C1952.93 225.217 1951.95 227.323 1950.04 228.017C1817.22 276.383 1719.07 221.46 1618.31 164.465L1616.7 163.551C1516.26 106.736 1412.78 48.1952 1267.53 83.0023C1265.56 83.4748 1263.57 82.2594 1263.1 80.2877C1262.63 78.316 1263.84 76.3345 1265.82 75.862C1413.88 40.3797 1519.61 100.191 1619.76 156.848L1621.93 158.074Z" fill="white"/>
<path fill-rule="evenodd" clip-rule="evenodd" d="M1621.93 127.233C1722.9 184.352 1818.22 237.363 1947.53 190.277C1949.43 189.583 1951.54 190.565 1952.23 192.471C1952.93 194.376 1951.95 196.483 1950.04 197.176C1817.22 245.542 1719.07 190.619 1618.31 133.624L1616.7 132.711C1516.26 75.8956 1412.78 17.3544 1267.53 52.1615C1265.56 52.634 1263.57 51.4186 1263.1 49.4469C1262.63 47.4752 1263.84 45.4937 1265.82 45.0212C1413.88 9.53883 1519.61 69.3499 1619.76 126.008L1621.93 127.233Z" fill="white"/>
<path fill-rule="evenodd" clip-rule="evenodd" d="M1621.93 96.3929C1722.9 153.512 1818.22 206.523 1947.53 159.437C1949.43 158.743 1951.54 159.725 1952.23 161.63C1952.93 163.535 1951.95 165.642 1950.04 166.336C1817.22 214.701 1719.07 159.779 1618.31 102.784L1616.7 101.87C1516.26 45.055 1412.78 -13.4862 1267.53 21.3209C1265.56 21.7934 1263.57 20.578 1263.1 18.6063C1262.63 16.6346 1263.84 14.6531 1265.82 14.1806C1413.88 -21.3017 1519.61 38.5093 1619.76 95.1669L1621.93 96.3929Z" fill="white"/>
<path fill-rule="evenodd" clip-rule="evenodd" d="M1621.93 65.5523C1722.9 122.671 1818.22 175.682 1947.53 128.596C1949.43 127.902 1951.54 128.884 1952.23 130.789C1952.93 132.695 1951.95 134.801 1950.04 135.495C1817.22 183.861 1719.07 128.938 1618.31 71.9431L1616.7 71.0294C1516.26 14.2144 1412.78 -44.3268 1267.53 -9.51965C1265.56 -9.04716 1263.57 -10.2625 1263.1 -12.2343C1262.63 -14.206 1263.84 -16.1875 1265.82 -16.6599C1413.88 -52.1423 1519.61 7.66875 1619.76 64.3264L1621.93 65.5523Z" fill="white"/>
<path fill-rule="evenodd" clip-rule="evenodd" d="M1621.93 34.7117C1722.9 91.8305 1818.22 144.841 1947.53 97.7554C1949.43 97.0617 1951.54 98.0437 1952.23 99.9489C1952.93 101.854 1951.95 103.961 1950.04 104.655C1817.22 153.02 1719.07 98.0974 1618.31 41.1025L1616.7 40.1888C1516.26 -16.6262 1412.78 -75.1673 1267.53 -40.3602C1265.56 -39.8877 1263.57 -41.1031 1263.1 -43.0748C1262.63 -45.0466 1263.84 -47.028 1265.82 -47.5005C1413.88 -82.9829 1519.61 -23.1718 1619.76 33.4858L1621.93 34.7117Z" fill="white"/>
<path fill-rule="evenodd" clip-rule="evenodd" d="M1621.93 3.8709C1722.9 60.9897 1818.22 114.001 1947.53 66.9146C1949.43 66.2209 1951.54 67.2029 1952.23 69.1081C1952.93 71.0132 1951.95 73.1201 1950.04 73.8139C1817.22 122.179 1719.07 67.2566 1618.31 10.2617L1616.7 9.34795C1516.26 -47.467 1412.78 -106.008 1267.53 -71.201C1265.56 -70.7286 1263.57 -71.9439 1263.1 -73.9157C1262.63 -75.8874 1263.84 -77.8688 1265.82 -78.3413C1413.88 -113.824 1519.61 -54.0126 1619.76 2.64497L1621.93 3.8709Z" fill="white"/>
</g>
</g>
<defs>
<filter id="filter0_f_205_241" x="-720.294" y="-1002" width="3472.29" height="2956" filterUnits="userSpaceOnUse" color-interpolation-filters="sRGB">
<feFlood flood-opacity="0" result="BackgroundImageFix"/>
<feBlend mode="normal" in="SourceGraphic" in2="BackgroundImageFix" result="shape"/>
<feGaussianBlur stdDeviation="150" result="effect1_foregroundBlur_205_241"/>
</filter>
<clipPath id="clip0_205_241">
<rect width="1920" height="1080" fill="white"/>
</clipPath>
</defs>
</svg>
