<svg width="641" height="166" viewBox="0 0 641 166" fill="none" xmlns="http://www.w3.org/2000/svg">
<g opacity="0.1">
<path fill-rule="evenodd" clip-rule="evenodd" d="M281.53 88.5221C180.554 31.4034 85.2338 -21.6076 -44.0716 25.4785C-45.9768 26.1722 -48.0836 25.1902 -48.7774 23.285C-49.4712 21.3798 -48.4891 19.273 -46.5839 18.5792C86.2354 -29.7864 184.388 25.1364 285.145 82.1313L286.761 83.0451C387.194 139.86 490.678 198.401 635.929 163.594C637.9 163.122 639.882 164.337 640.354 166.309C640.827 168.28 639.612 170.262 637.64 170.734C489.571 206.217 383.847 146.406 283.697 89.7481L281.53 88.5221Z" fill="white"/>
<path fill-rule="evenodd" clip-rule="evenodd" d="M281.53 119.363C180.554 62.2442 85.2338 9.23325 -44.0716 56.3193C-45.9768 57.013 -48.0836 56.031 -48.7774 54.1258C-49.4712 52.2206 -48.4891 50.1138 -46.5839 49.42C86.2354 1.05443 184.388 55.9772 285.145 112.972L286.761 113.886C387.194 170.701 490.678 229.242 635.929 194.435C637.9 193.962 639.882 195.178 640.354 197.149C640.827 199.121 639.612 201.103 637.64 201.575C489.571 237.058 383.847 177.246 283.697 120.589L281.53 119.363Z" fill="white"/>
<path fill-rule="evenodd" clip-rule="evenodd" d="M281.53 150.203C180.554 93.0845 85.2338 40.0736 -44.0716 87.1596C-45.9768 87.8534 -48.0836 86.8713 -48.7774 84.9661C-49.4712 83.061 -48.4891 80.9541 -46.5839 80.2604C86.2354 31.8948 184.388 86.8176 285.145 143.812L286.761 144.726C387.194 201.541 490.678 260.082 635.929 225.275C637.9 224.803 639.882 226.018 640.354 227.99C640.827 229.962 639.612 231.943 637.64 232.415C489.571 267.898 383.847 208.087 283.697 151.429L281.53 150.203Z" fill="white"/>
<path fill-rule="evenodd" clip-rule="evenodd" d="M281.53 181.044C180.554 123.925 85.2338 70.9144 -44.0716 118C-45.9768 118.694 -48.0836 117.712 -48.7774 115.807C-49.4712 113.902 -48.4891 111.795 -46.5839 111.101C86.2354 62.7356 184.388 117.658 285.145 174.653L286.761 175.567C387.194 232.382 490.678 290.923 635.929 256.116C637.9 255.644 639.882 256.859 640.354 258.831C640.827 260.802 639.612 262.784 637.64 263.256C489.571 298.739 383.847 238.928 283.697 182.27L281.53 181.044Z" fill="white"/>
<path fill-rule="evenodd" clip-rule="evenodd" d="M281.53 211.885C180.554 154.766 85.2338 101.755 -44.0716 148.841C-45.9768 149.535 -48.0836 148.553 -48.7774 146.648C-49.4712 144.743 -48.4891 142.636 -46.5839 141.942C86.2354 93.5764 184.388 148.499 285.145 205.494L286.761 206.408C387.194 263.223 490.678 321.764 635.929 286.957C637.9 286.484 639.882 287.7 640.354 289.671C640.827 291.643 639.612 293.625 637.64 294.097C489.571 329.58 383.847 269.768 283.697 213.111L281.53 211.885Z" fill="white"/>
<path fill-rule="evenodd" clip-rule="evenodd" d="M281.53 242.725C180.554 185.607 85.2338 132.596 -44.0716 179.682C-45.9768 180.375 -48.0836 179.393 -48.7774 177.488C-49.4712 175.583 -48.4891 173.476 -46.5839 172.782C86.2354 124.417 184.388 179.34 285.145 236.334L286.761 237.248C387.194 294.063 490.678 352.604 635.929 317.797C637.9 317.325 639.882 318.54 640.354 320.512C640.827 322.484 639.612 324.465 637.64 324.937C489.571 360.42 383.847 300.609 283.697 243.951L281.53 242.725Z" fill="white"/>
</g>
</svg>
