<svg width="88" height="90" viewBox="0 0 88 90" fill="none" xmlns="http://www.w3.org/2000/svg">
<g clip-path="url(#clip0_51_786)">
<path d="M86.7655 49.1585C87.6013 50.4443 87.9996 51.885 87.9996 53.3095C87.9996 55.8823 86.6996 58.3985 84.3323 59.8339C82.0364 61.2274 80.6651 63.7099 80.6651 66.3502C80.6651 66.6736 80.6852 67.0011 80.7283 67.3286C80.7714 67.6615 80.7916 67.9917 80.7916 68.3165C80.7916 72.1818 77.8564 75.5093 73.9105 75.8894C72.4113 76.0336 71.0251 76.6145 69.8947 77.5174C68.7642 78.4191 67.8908 79.6441 67.4171 81.0768C66.3552 84.2844 63.377 86.3006 60.1942 86.3006C59.3221 86.3006 58.4326 86.1483 57.5645 85.8289C56.7073 85.5122 55.8164 85.3585 54.9349 85.3585C52.9108 85.3585 50.9271 86.1685 49.4669 87.6793C47.9717 89.2265 45.9853 90.0001 44.0003 90.0001C42.0153 90.0001 40.0289 89.2265 38.5337 87.6793C37.0735 86.1685 35.0898 85.3585 33.0657 85.3585C32.1842 85.3585 31.2933 85.5122 30.4361 85.8289C29.5667 86.1483 28.6785 86.3006 27.8064 86.3006C24.6236 86.3006 21.6453 84.2844 20.5835 81.0768C20.1098 79.6441 19.2364 78.4191 18.1059 77.5174C16.9755 76.6158 15.5893 76.0349 14.0901 75.8894C10.1429 75.5107 7.20904 72.1818 7.20904 68.3165C7.20904 67.9903 7.22923 67.6601 7.27229 67.3286C7.31401 67.0011 7.33554 66.6749 7.33554 66.3502C7.33554 63.7086 5.96283 61.2261 3.66826 59.8339C1.30101 58.3985 0.000976562 55.8823 0.000976562 53.3095C0.000976562 51.885 0.399331 50.4443 1.23507 49.1585C2.05735 47.8943 2.46781 46.4469 2.46781 44.9994C2.46781 43.552 2.056 42.1045 1.23507 40.8403C0.399331 39.5546 0.000976562 38.1139 0.000976562 36.6893C0.000976562 34.1165 1.30101 31.6003 3.66826 30.165C5.96418 28.7714 7.33554 26.2889 7.33554 23.6487C7.33554 23.3252 7.31536 22.9977 7.27229 22.6702C7.22923 22.3374 7.20904 22.0072 7.20904 21.6824C7.20904 17.8171 10.1442 14.4895 14.0901 14.1095C15.5893 13.9653 16.9755 13.3844 18.1059 12.4814C19.2364 11.5798 20.1098 10.3547 20.5835 8.92206C21.6453 5.71447 24.6236 3.69827 27.8064 3.69827C28.6785 3.69827 29.568 3.85056 30.4361 4.16997C31.2933 4.48669 32.1842 4.64033 33.0657 4.64033C35.0898 4.64033 37.0735 3.83034 38.5337 2.31954C40.0289 0.772345 42.0153 -0.00125122 44.0003 -0.00125122C45.9853 -0.00125122 47.9717 0.772345 49.4669 2.31954C51.5623 4.48803 54.7384 5.21446 57.5645 4.16997C58.4339 3.85056 59.3221 3.69827 60.1942 3.69827C63.377 3.69827 66.3552 5.71447 67.4171 8.92206C67.8908 10.3547 68.7642 11.5798 69.8947 12.4814C71.0251 13.383 72.4113 13.9639 73.9105 14.1095C77.8577 14.4882 80.7916 17.8171 80.7916 21.6824C80.7916 22.0085 80.7714 22.3387 80.7283 22.6702C80.6866 22.9977 80.6651 23.3239 80.6651 23.6487C80.6651 26.2902 82.0378 28.7728 84.3323 30.165C86.6996 31.6003 87.9996 34.1165 87.9996 36.6893C87.9996 38.1139 87.6013 39.5546 86.7655 40.8403C85.9432 42.1045 85.5314 43.552 85.5314 44.9994C85.5314 46.4469 85.9432 47.8943 86.7655 49.1585Z" fill="url(#paint0_linear_51_786)"/>
<path d="M44.001 79.6912C63.1326 79.6912 78.6417 64.1597 78.6417 45.0007C78.6417 25.8416 63.1326 10.3101 44.001 10.3101C24.8695 10.3101 9.36035 25.8416 9.36035 45.0007C9.36035 64.1597 24.8695 79.6912 44.001 79.6912Z" fill="url(#paint1_linear_51_786)"/>
<path d="M37.055 65.5845L22.2217 50.7285L28.59 44.3511L36.3619 52.1342L57.756 25.7551L64.7474 31.4412L37.055 65.5845Z" fill="white"/>
</g>
<defs>
<linearGradient id="paint0_linear_51_786" x1="21.2187" y1="22.1864" x2="77.1279" y2="78.0152" gradientUnits="userSpaceOnUse">
<stop stop-color="#B8D5E3"/>
<stop offset="1" stop-color="#11385D"/>
</linearGradient>
<linearGradient id="paint1_linear_51_786" x1="18.157" y1="18.9473" x2="69.6844" y2="70.5725" gradientUnits="userSpaceOnUse">
<stop stop-color="#E2EEF3"/>
<stop offset="1" stop-color="#32739E"/>
</linearGradient>
<clipPath id="clip0_51_786">
<rect width="88" height="90" fill="white"/>
</clipPath>
</defs>
</svg>
