<svg width="1920" height="1542" viewBox="0 0 1920 1542" fill="none" xmlns="http://www.w3.org/2000/svg">
<path fill-rule="evenodd" clip-rule="evenodd" d="M1433.03 1416.61C1290.96 1496.97 1156.85 1571.55 974.934 1505.31C972.253 1504.33 969.289 1505.71 968.313 1508.39C967.337 1511.07 968.719 1514.04 971.399 1515.01C1158.26 1583.06 1296.36 1505.79 1438.11 1425.6L1440.38 1424.32C1581.68 1344.38 1727.28 1262.02 1931.63 1310.99C1934.4 1311.66 1937.19 1309.95 1937.86 1307.17C1938.52 1304.4 1936.81 1301.61 1934.04 1300.95C1725.72 1251.02 1576.98 1335.17 1436.07 1414.89L1433.03 1416.61Z" fill="url(#paint0_linear_280_260)"/>
<path fill-rule="evenodd" clip-rule="evenodd" d="M1433.03 1373.22C1290.96 1453.58 1156.85 1528.16 974.934 1461.92C972.253 1460.94 969.289 1462.32 968.313 1465C967.337 1467.68 968.719 1470.65 971.399 1471.62C1158.26 1539.67 1296.36 1462.4 1438.11 1382.21L1440.38 1380.93C1581.68 1300.99 1727.28 1218.63 1931.63 1267.6C1934.4 1268.27 1937.19 1266.56 1937.86 1263.78C1938.52 1261.01 1936.81 1258.22 1934.04 1257.55C1725.72 1207.63 1576.98 1291.78 1436.07 1371.5L1433.03 1373.22Z" fill="url(#paint1_linear_280_260)"/>
<path fill-rule="evenodd" clip-rule="evenodd" d="M1433.03 1329.83C1290.96 1410.19 1156.85 1484.77 974.934 1418.53C972.253 1417.55 969.289 1418.93 968.313 1421.61C967.337 1424.29 968.719 1427.26 971.399 1428.23C1158.26 1496.28 1296.36 1419.01 1438.11 1338.82L1440.38 1337.54C1581.68 1257.6 1727.28 1175.24 1931.63 1224.21C1934.4 1224.88 1937.19 1223.17 1937.86 1220.39C1938.52 1217.62 1936.81 1214.83 1934.04 1214.17C1725.72 1164.24 1576.98 1248.39 1436.07 1328.11L1433.03 1329.83Z" fill="url(#paint2_linear_280_260)"/>
<path fill-rule="evenodd" clip-rule="evenodd" d="M1433.03 1286.44C1290.96 1366.8 1156.85 1441.38 974.934 1375.14C972.253 1374.16 969.289 1375.54 968.313 1378.22C967.337 1380.9 968.719 1383.87 971.399 1384.84C1158.26 1452.89 1296.36 1375.62 1438.11 1295.43L1440.38 1294.15C1581.68 1214.21 1727.28 1131.85 1931.63 1180.82C1934.4 1181.49 1937.19 1179.78 1937.86 1177C1938.52 1174.23 1936.81 1171.44 1934.04 1170.78C1725.72 1120.85 1576.98 1205 1436.07 1284.72L1433.03 1286.44Z" fill="url(#paint3_linear_280_260)"/>
<path fill-rule="evenodd" clip-rule="evenodd" d="M1433.03 1243.05C1290.96 1323.41 1156.85 1397.99 974.934 1331.75C972.253 1330.77 969.289 1332.15 968.313 1334.83C967.337 1337.51 968.719 1340.48 971.399 1341.45C1158.26 1409.5 1296.36 1332.23 1438.11 1252.04L1440.38 1250.76C1581.68 1170.82 1727.28 1088.46 1931.63 1137.43C1934.4 1138.1 1937.19 1136.39 1937.86 1133.61C1938.52 1130.84 1936.81 1128.05 1934.04 1127.39C1725.72 1077.47 1576.98 1161.61 1436.07 1241.33L1433.03 1243.05Z" fill="url(#paint4_linear_280_260)"/>
<path fill-rule="evenodd" clip-rule="evenodd" d="M1433.03 1199.66C1290.96 1280.02 1156.85 1354.6 974.934 1288.36C972.253 1287.38 969.289 1288.76 968.313 1291.44C967.337 1294.12 968.719 1297.09 971.399 1298.06C1158.26 1366.11 1296.36 1288.84 1438.11 1208.65L1440.38 1207.37C1581.68 1127.43 1727.28 1045.07 1931.63 1094.04C1934.4 1094.71 1937.19 1093 1937.86 1090.22C1938.52 1087.45 1936.81 1084.66 1934.04 1084C1725.72 1034.08 1576.98 1118.22 1436.07 1197.94L1433.03 1199.66Z" fill="url(#paint5_linear_280_260)"/>
<path fill-rule="evenodd" clip-rule="evenodd" d="M490.975 347.61C633.039 427.971 767.146 502.552 949.066 436.307C951.747 435.331 954.711 436.712 955.687 439.393C956.663 442.073 955.281 445.037 952.601 446.013C765.737 514.059 627.645 436.788 485.889 356.601L483.616 355.316C342.316 275.382 196.723 193.021 -7.63011 241.991C-10.4042 242.656 -13.1919 240.946 -13.8566 238.172C-14.5214 235.398 -12.8114 232.61 -10.0375 231.945C198.281 182.025 347.025 266.173 487.926 345.885L490.975 347.61Z" fill="url(#paint6_linear_280_260)"/>
<path fill-rule="evenodd" clip-rule="evenodd" d="M490.975 304.22C633.039 384.581 767.146 459.162 949.066 392.916C951.747 391.94 954.711 393.322 955.687 396.002C956.663 398.683 955.281 401.647 952.601 402.623C765.737 470.669 627.645 393.398 485.889 313.211L483.616 311.926C342.316 231.992 196.723 149.63 -7.63011 198.601C-10.4042 199.265 -13.1919 197.556 -13.8566 194.781C-14.5214 192.007 -12.8114 189.22 -10.0375 188.555C198.281 138.635 347.025 222.783 487.926 302.495L490.975 304.22Z" fill="url(#paint7_linear_280_260)"/>
<path fill-rule="evenodd" clip-rule="evenodd" d="M490.975 260.83C633.039 341.191 767.146 415.772 949.066 349.527C951.747 348.551 954.711 349.932 955.687 352.613C956.663 355.293 955.281 358.257 952.601 359.233C765.737 427.279 627.645 350.008 485.889 269.821L483.616 268.536C342.316 188.603 196.723 106.241 -7.63011 155.211C-10.4042 155.876 -13.1919 154.166 -13.8566 151.392C-14.5214 148.618 -12.8114 145.83 -10.0375 145.165C198.281 95.245 347.025 179.394 487.926 259.105L490.975 260.83Z" fill="url(#paint8_linear_280_260)"/>
<path fill-rule="evenodd" clip-rule="evenodd" d="M490.975 217.44C633.039 297.801 767.146 372.382 949.066 306.137C951.747 305.161 954.711 306.542 955.687 309.223C956.663 311.903 955.281 314.867 952.601 315.843C765.737 383.889 627.645 306.618 485.889 226.431L483.616 225.146C342.316 145.213 196.723 62.8506 -7.63011 111.821C-10.4042 112.486 -13.1919 110.776 -13.8566 108.002C-14.5214 105.228 -12.8114 102.44 -10.0375 101.775C198.281 51.8549 347.025 136.003 487.926 215.715L490.975 217.44Z" fill="url(#paint9_linear_280_260)"/>
<path fill-rule="evenodd" clip-rule="evenodd" d="M490.975 174.05C633.039 254.411 767.146 328.993 949.066 262.747C951.747 261.771 954.711 263.153 955.687 265.833C956.663 268.513 955.281 271.478 952.601 272.454C765.737 340.499 627.645 263.228 485.889 183.042L483.616 181.756C342.316 101.823 196.723 19.461 -7.63011 68.4313C-10.4042 69.096 -13.1919 67.3861 -13.8566 64.6121C-14.5214 61.838 -12.8114 59.0503 -10.0375 58.3856C198.281 8.4652 347.025 92.6137 487.926 172.326L490.975 174.05Z" fill="url(#paint10_linear_280_260)"/>
<path fill-rule="evenodd" clip-rule="evenodd" d="M490.975 130.661C633.039 211.021 767.146 285.603 949.066 219.357C951.747 218.381 954.711 219.763 955.687 222.443C956.663 225.124 955.281 228.088 952.601 229.064C765.737 297.11 627.645 219.839 485.889 139.652L483.616 138.366C342.316 58.4332 196.723 -23.9287 -7.63011 25.0416C-10.4042 25.7064 -13.1919 23.9965 -13.8566 21.2224C-14.5214 18.4484 -12.8114 15.6607 -10.0375 14.9959C198.281 -34.9244 347.025 49.2241 487.926 128.936L490.975 130.661Z" fill="url(#paint11_linear_280_260)"/>
<defs>
<linearGradient id="paint0_linear_280_260" x1="2030.86" y1="1355.53" x2="1131.84" y2="1745.05" gradientUnits="userSpaceOnUse">
<stop stop-color="#3C7FA9" stop-opacity="0.3"/>
<stop offset="1" stop-color="white" stop-opacity="0"/>
</linearGradient>
<linearGradient id="paint1_linear_280_260" x1="2030.86" y1="1312.14" x2="1131.84" y2="1701.66" gradientUnits="userSpaceOnUse">
<stop stop-color="#3C7FA9" stop-opacity="0.3"/>
<stop offset="1" stop-color="white" stop-opacity="0"/>
</linearGradient>
<linearGradient id="paint2_linear_280_260" x1="2030.86" y1="1268.75" x2="1131.84" y2="1658.27" gradientUnits="userSpaceOnUse">
<stop stop-color="#3C7FA9" stop-opacity="0.3"/>
<stop offset="1" stop-color="white" stop-opacity="0"/>
</linearGradient>
<linearGradient id="paint3_linear_280_260" x1="2030.86" y1="1225.36" x2="1131.84" y2="1614.88" gradientUnits="userSpaceOnUse">
<stop stop-color="#3C7FA9" stop-opacity="0.3"/>
<stop offset="1" stop-color="white" stop-opacity="0"/>
</linearGradient>
<linearGradient id="paint4_linear_280_260" x1="2030.86" y1="1181.97" x2="1131.84" y2="1571.49" gradientUnits="userSpaceOnUse">
<stop stop-color="#3C7FA9" stop-opacity="0.3"/>
<stop offset="1" stop-color="white" stop-opacity="0"/>
</linearGradient>
<linearGradient id="paint5_linear_280_260" x1="2030.86" y1="1138.58" x2="1131.84" y2="1528.1" gradientUnits="userSpaceOnUse">
<stop stop-color="#3C7FA9" stop-opacity="0.3"/>
<stop offset="1" stop-color="white" stop-opacity="0"/>
</linearGradient>
<linearGradient id="paint6_linear_280_260" x1="-106.856" y1="286.53" x2="792.16" y2="676.053" gradientUnits="userSpaceOnUse">
<stop stop-color="#3C7FA9" stop-opacity="0.3"/>
<stop offset="1" stop-color="white" stop-opacity="0"/>
</linearGradient>
<linearGradient id="paint7_linear_280_260" x1="-106.856" y1="243.14" x2="792.16" y2="632.663" gradientUnits="userSpaceOnUse">
<stop stop-color="#3C7FA9" stop-opacity="0.3"/>
<stop offset="1" stop-color="white" stop-opacity="0"/>
</linearGradient>
<linearGradient id="paint8_linear_280_260" x1="-106.856" y1="199.75" x2="792.16" y2="589.273" gradientUnits="userSpaceOnUse">
<stop stop-color="#3C7FA9" stop-opacity="0.3"/>
<stop offset="1" stop-color="white" stop-opacity="0"/>
</linearGradient>
<linearGradient id="paint9_linear_280_260" x1="-106.856" y1="156.36" x2="792.16" y2="545.883" gradientUnits="userSpaceOnUse">
<stop stop-color="#3C7FA9" stop-opacity="0.3"/>
<stop offset="1" stop-color="white" stop-opacity="0"/>
</linearGradient>
<linearGradient id="paint10_linear_280_260" x1="-106.856" y1="112.971" x2="792.16" y2="502.493" gradientUnits="userSpaceOnUse">
<stop stop-color="#3C7FA9" stop-opacity="0.3"/>
<stop offset="1" stop-color="white" stop-opacity="0"/>
</linearGradient>
<linearGradient id="paint11_linear_280_260" x1="-106.856" y1="69.5809" x2="792.16" y2="459.104" gradientUnits="userSpaceOnUse">
<stop stop-color="#3C7FA9" stop-opacity="0.3"/>
<stop offset="1" stop-color="white" stop-opacity="0"/>
</linearGradient>
</defs>
</svg>
