<svg width="956" height="473" viewBox="0 0 956 473" fill="none" xmlns="http://www.w3.org/2000/svg">
<path fill-rule="evenodd" clip-rule="evenodd" d="M490.975 347.61C633.039 427.971 767.146 502.552 949.066 436.307C951.747 435.331 954.711 436.712 955.687 439.393C956.663 442.073 955.281 445.037 952.601 446.013C765.737 514.059 627.645 436.788 485.889 356.601L483.616 355.316C342.316 275.382 196.723 193.021 -7.63011 241.991C-10.4042 242.656 -13.1919 240.946 -13.8566 238.172C-14.5214 235.398 -12.8114 232.61 -10.0375 231.945C198.281 182.025 347.025 266.173 487.926 345.885L490.975 347.61Z" fill="url(#paint0_linear_114_167)"/>
<path fill-rule="evenodd" clip-rule="evenodd" d="M490.975 304.22C633.039 384.581 767.146 459.162 949.066 392.917C951.747 391.94 954.711 393.322 955.687 396.003C956.663 398.683 955.281 401.647 952.601 402.623C765.737 470.669 627.645 393.398 485.889 313.211L483.616 311.926C342.316 231.992 196.723 149.631 -7.63011 198.601C-10.4042 199.266 -13.1919 197.556 -13.8566 194.782C-14.5214 192.008 -12.8114 189.22 -10.0375 188.555C198.281 138.635 347.025 222.783 487.926 302.495L490.975 304.22Z" fill="url(#paint1_linear_114_167)"/>
<path fill-rule="evenodd" clip-rule="evenodd" d="M490.975 260.83C633.039 341.191 767.146 415.772 949.066 349.527C951.747 348.551 954.711 349.932 955.687 352.613C956.663 355.293 955.281 358.257 952.601 359.233C765.737 427.279 627.645 350.008 485.889 269.822L483.616 268.536C342.316 188.603 196.723 106.241 -7.63011 155.211C-10.4042 155.876 -13.1919 154.166 -13.8566 151.392C-14.5214 148.618 -12.8114 145.83 -10.0375 145.165C198.281 95.2451 347.025 179.394 487.926 259.106L490.975 260.83Z" fill="url(#paint2_linear_114_167)"/>
<path fill-rule="evenodd" clip-rule="evenodd" d="M490.975 217.44C633.039 297.801 767.146 372.382 949.066 306.137C951.747 305.161 954.711 306.542 955.687 309.223C956.663 311.903 955.281 314.867 952.601 315.843C765.737 383.889 627.645 306.618 485.889 226.431L483.616 225.146C342.316 145.213 196.723 62.8506 -7.63011 111.821C-10.4042 112.486 -13.1919 110.776 -13.8566 108.002C-14.5214 105.228 -12.8114 102.44 -10.0375 101.775C198.281 51.8549 347.025 136.003 487.926 215.715L490.975 217.44Z" fill="url(#paint3_linear_114_167)"/>
<path fill-rule="evenodd" clip-rule="evenodd" d="M490.975 174.05C633.039 254.411 767.146 328.992 949.066 262.747C951.747 261.771 954.711 263.152 955.687 265.833C956.663 268.513 955.281 271.477 952.601 272.453C765.737 340.499 627.645 263.228 485.889 183.042L483.616 181.756C342.316 101.823 196.723 19.4608 -7.63011 68.4311C-10.4042 69.0959 -13.1919 67.386 -13.8566 64.6119C-14.5214 61.8379 -12.8114 59.0502 -10.0375 58.3854C198.281 8.46508 347.025 92.6136 487.926 172.326L490.975 174.05Z" fill="url(#paint4_linear_114_167)"/>
<path fill-rule="evenodd" clip-rule="evenodd" d="M490.975 130.661C633.039 211.021 767.146 285.603 949.066 219.357C951.747 218.381 954.711 219.763 955.687 222.443C956.663 225.123 955.281 228.088 952.601 229.064C765.737 297.11 627.645 219.838 485.889 139.652L483.616 138.366C342.316 58.433 196.723 -23.9289 -7.63011 25.0414C-10.4042 25.7061 -13.1919 23.9962 -13.8566 21.2222C-14.5214 18.4481 -12.8114 15.6604 -10.0375 14.9957C198.281 -34.9247 347.025 49.2238 487.926 128.936L490.975 130.661Z" fill="url(#paint5_linear_114_167)"/>
<defs>
<linearGradient id="paint0_linear_114_167" x1="-106.856" y1="286.53" x2="792.16" y2="676.053" gradientUnits="userSpaceOnUse">
<stop stop-color="#3C7FA9" stop-opacity="0.3"/>
<stop offset="1" stop-color="white" stop-opacity="0"/>
</linearGradient>
<linearGradient id="paint1_linear_114_167" x1="-106.856" y1="243.14" x2="792.16" y2="632.663" gradientUnits="userSpaceOnUse">
<stop stop-color="#3C7FA9" stop-opacity="0.3"/>
<stop offset="1" stop-color="white" stop-opacity="0"/>
</linearGradient>
<linearGradient id="paint2_linear_114_167" x1="-106.856" y1="199.75" x2="792.16" y2="589.273" gradientUnits="userSpaceOnUse">
<stop stop-color="#3C7FA9" stop-opacity="0.3"/>
<stop offset="1" stop-color="white" stop-opacity="0"/>
</linearGradient>
<linearGradient id="paint3_linear_114_167" x1="-106.856" y1="156.36" x2="792.16" y2="545.883" gradientUnits="userSpaceOnUse">
<stop stop-color="#3C7FA9" stop-opacity="0.3"/>
<stop offset="1" stop-color="white" stop-opacity="0"/>
</linearGradient>
<linearGradient id="paint4_linear_114_167" x1="-106.856" y1="112.97" x2="792.16" y2="502.493" gradientUnits="userSpaceOnUse">
<stop stop-color="#3C7FA9" stop-opacity="0.3"/>
<stop offset="1" stop-color="white" stop-opacity="0"/>
</linearGradient>
<linearGradient id="paint5_linear_114_167" x1="-106.856" y1="69.5806" x2="792.16" y2="459.103" gradientUnits="userSpaceOnUse">
<stop stop-color="#3C7FA9" stop-opacity="0.3"/>
<stop offset="1" stop-color="white" stop-opacity="0"/>
</linearGradient>
</defs>
</svg>
