<svg width="952" height="473" viewBox="0 0 952 473" fill="none" xmlns="http://www.w3.org/2000/svg">
<path fill-rule="evenodd" clip-rule="evenodd" d="M465.025 347.61C322.961 427.971 188.854 502.552 6.93382 436.307C4.25343 435.331 1.28928 436.712 0.313228 439.393C-0.662827 442.073 0.718817 445.037 3.39922 446.013C190.264 514.059 328.355 436.788 470.111 356.601L472.384 355.316C613.684 275.382 759.277 193.021 963.63 241.991C966.404 242.656 969.192 240.946 969.857 238.172C970.522 235.398 968.812 232.61 966.038 231.945C757.719 182.025 608.976 266.173 468.074 345.885L465.025 347.61Z" fill="url(#paint0_linear_114_188)"/>
<path fill-rule="evenodd" clip-rule="evenodd" d="M465.025 304.22C322.961 384.581 188.854 459.162 6.93382 392.917C4.25343 391.941 1.28928 393.322 0.313228 396.003C-0.662827 398.683 0.718817 401.647 3.39922 402.623C190.264 470.669 328.355 393.398 470.111 313.211L472.384 311.926C613.684 231.993 759.277 149.631 963.63 198.601C966.404 199.266 969.192 197.556 969.857 194.782C970.522 192.008 968.812 189.22 966.038 188.555C757.719 138.635 608.976 222.783 468.074 302.495L465.025 304.22Z" fill="url(#paint1_linear_114_188)"/>
<path fill-rule="evenodd" clip-rule="evenodd" d="M465.025 260.83C322.961 341.191 188.854 415.772 6.93382 349.527C4.25343 348.551 1.28928 349.932 0.313228 352.613C-0.662827 355.293 0.718817 358.257 3.39922 359.233C190.264 427.279 328.355 350.008 470.111 269.821L472.384 268.536C613.684 188.603 759.277 106.241 963.63 155.211C966.404 155.876 969.192 154.166 969.857 151.392C970.522 148.618 968.812 145.83 966.038 145.165C757.719 95.245 608.976 179.394 468.074 259.105L465.025 260.83Z" fill="url(#paint2_linear_114_188)"/>
<path fill-rule="evenodd" clip-rule="evenodd" d="M465.025 217.44C322.961 297.801 188.854 372.382 6.93382 306.137C4.25343 305.161 1.28928 306.542 0.313228 309.223C-0.662827 311.903 0.718817 314.867 3.39922 315.843C190.264 383.889 328.355 306.618 470.111 226.431L472.384 225.146C613.684 145.213 759.277 62.8506 963.63 111.821C966.404 112.486 969.192 110.776 969.857 108.002C970.522 105.228 968.812 102.44 966.038 101.775C757.719 51.8549 608.976 136.003 468.074 215.715L465.025 217.44Z" fill="url(#paint3_linear_114_188)"/>
<path fill-rule="evenodd" clip-rule="evenodd" d="M465.025 174.05C322.961 254.411 188.854 328.992 6.93382 262.747C4.25343 261.771 1.28928 263.152 0.313228 265.833C-0.662827 268.513 0.718817 271.477 3.39922 272.453C190.264 340.499 328.355 263.228 470.111 183.042L472.384 181.756C613.684 101.823 759.277 19.4608 963.63 68.4311C966.404 69.0959 969.192 67.386 969.857 64.6119C970.522 61.8379 968.812 59.0502 966.038 58.3854C757.719 8.46508 608.976 92.6136 468.074 172.326L465.025 174.05Z" fill="url(#paint4_linear_114_188)"/>
<path fill-rule="evenodd" clip-rule="evenodd" d="M465.025 130.661C322.961 211.021 188.854 285.603 6.93382 219.357C4.25343 218.381 1.28928 219.763 0.313228 222.443C-0.662827 225.123 0.718817 228.088 3.39922 229.064C190.264 297.11 328.355 219.838 470.111 139.652L472.384 138.366C613.684 58.433 759.277 -23.9289 963.63 25.0414C966.404 25.7061 969.192 23.9962 969.857 21.2222C970.522 18.4481 968.812 15.6604 966.038 14.9957C757.719 -34.9247 608.976 49.2238 468.074 128.936L465.025 130.661Z" fill="url(#paint5_linear_114_188)"/>
<defs>
<linearGradient id="paint0_linear_114_188" x1="1062.86" y1="286.53" x2="163.84" y2="676.053" gradientUnits="userSpaceOnUse">
<stop stop-color="#3C7FA9" stop-opacity="0.3"/>
<stop offset="1" stop-color="white" stop-opacity="0"/>
</linearGradient>
<linearGradient id="paint1_linear_114_188" x1="1062.86" y1="243.14" x2="163.84" y2="632.663" gradientUnits="userSpaceOnUse">
<stop stop-color="#3C7FA9" stop-opacity="0.3"/>
<stop offset="1" stop-color="white" stop-opacity="0"/>
</linearGradient>
<linearGradient id="paint2_linear_114_188" x1="1062.86" y1="199.75" x2="163.84" y2="589.273" gradientUnits="userSpaceOnUse">
<stop stop-color="#3C7FA9" stop-opacity="0.3"/>
<stop offset="1" stop-color="white" stop-opacity="0"/>
</linearGradient>
<linearGradient id="paint3_linear_114_188" x1="1062.86" y1="156.36" x2="163.84" y2="545.883" gradientUnits="userSpaceOnUse">
<stop stop-color="#3C7FA9" stop-opacity="0.3"/>
<stop offset="1" stop-color="white" stop-opacity="0"/>
</linearGradient>
<linearGradient id="paint4_linear_114_188" x1="1062.86" y1="112.97" x2="163.84" y2="502.493" gradientUnits="userSpaceOnUse">
<stop stop-color="#3C7FA9" stop-opacity="0.3"/>
<stop offset="1" stop-color="white" stop-opacity="0"/>
</linearGradient>
<linearGradient id="paint5_linear_114_188" x1="1062.86" y1="69.5806" x2="163.84" y2="459.103" gradientUnits="userSpaceOnUse">
<stop stop-color="#3C7FA9" stop-opacity="0.3"/>
<stop offset="1" stop-color="white" stop-opacity="0"/>
</linearGradient>
</defs>
</svg>
