<svg width="1920" height="1098" viewBox="0 0 1920 1098" fill="none" xmlns="http://www.w3.org/2000/svg">
<path fill-rule="evenodd" clip-rule="evenodd" d="M490.975 347.61C633.039 427.971 767.146 502.552 949.066 436.307C951.747 435.331 954.711 436.712 955.687 439.393C956.663 442.073 955.281 445.037 952.601 446.013C765.736 514.059 627.645 436.788 485.889 356.601L483.616 355.316C342.316 275.383 196.723 193.021 -7.63023 241.991C-10.4043 242.656 -13.192 240.946 -13.8567 238.172C-14.5215 235.398 -12.8116 232.61 -10.0376 231.945C198.281 182.025 347.025 266.173 487.926 345.885L490.975 347.61Z" fill="url(#paint0_linear_193_220)"/>
<path fill-rule="evenodd" clip-rule="evenodd" d="M490.975 304.22C633.039 384.581 767.146 459.162 949.066 392.917C951.747 391.941 954.711 393.322 955.687 396.003C956.663 398.683 955.281 401.647 952.601 402.623C765.736 470.669 627.645 393.398 485.889 313.211L483.616 311.926C342.316 231.993 196.723 149.631 -7.63023 198.601C-10.4043 199.266 -13.192 197.556 -13.8567 194.782C-14.5215 192.008 -12.8116 189.22 -10.0376 188.555C198.281 138.635 347.025 222.783 487.926 302.495L490.975 304.22Z" fill="url(#paint1_linear_193_220)"/>
<path fill-rule="evenodd" clip-rule="evenodd" d="M490.975 260.83C633.039 341.191 767.146 415.773 949.066 349.527C951.747 348.551 954.711 349.933 955.687 352.613C956.663 355.293 955.281 358.258 952.601 359.234C765.736 427.279 627.645 350.008 485.889 269.822L483.616 268.536C342.316 188.603 196.723 106.241 -7.63023 155.211C-10.4043 155.876 -13.192 154.166 -13.8567 151.392C-14.5215 148.618 -12.8116 145.83 -10.0376 145.166C198.281 95.2452 347.025 179.394 487.926 259.106L490.975 260.83Z" fill="url(#paint2_linear_193_220)"/>
<path fill-rule="evenodd" clip-rule="evenodd" d="M490.975 217.44C633.039 297.801 767.146 372.382 949.066 306.137C951.747 305.161 954.711 306.542 955.687 309.223C956.663 311.903 955.281 314.867 952.601 315.843C765.736 383.889 627.645 306.618 485.889 226.431L483.616 225.146C342.316 145.213 196.723 62.8507 -7.63023 111.821C-10.4043 112.486 -13.192 110.776 -13.8567 108.002C-14.5215 105.228 -12.8116 102.44 -10.0376 101.775C198.281 51.855 347.025 136.004 487.926 215.715L490.975 217.44Z" fill="url(#paint3_linear_193_220)"/>
<path fill-rule="evenodd" clip-rule="evenodd" d="M490.975 174.05C633.039 254.411 767.146 328.993 949.066 262.747C951.747 261.771 954.711 263.153 955.687 265.833C956.663 268.513 955.281 271.478 952.601 272.454C765.736 340.499 627.645 263.228 485.889 183.042L483.616 181.756C342.316 101.823 196.723 19.461 -7.63023 68.4313C-10.4043 69.096 -13.192 67.3861 -13.8567 64.6121C-14.5215 61.838 -12.8116 59.0503 -10.0376 58.3856C198.281 8.4652 347.025 92.6137 487.926 172.326L490.975 174.05Z" fill="url(#paint4_linear_193_220)"/>
<path fill-rule="evenodd" clip-rule="evenodd" d="M490.975 130.661C633.039 211.021 767.146 285.603 949.066 219.357C951.747 218.381 954.711 219.763 955.687 222.443C956.663 225.124 955.281 228.088 952.601 229.064C765.736 297.11 627.645 219.838 485.889 139.652L483.616 138.366C342.316 58.4332 196.723 -23.9287 -7.63023 25.0416C-10.4043 25.7063 -13.192 23.9964 -13.8567 21.2223C-14.5215 18.4483 -12.8116 15.6606 -10.0376 14.9958C198.281 -34.9245 347.025 49.224 487.926 128.936L490.975 130.661Z" fill="url(#paint5_linear_193_220)"/>
<path fill-rule="evenodd" clip-rule="evenodd" d="M1433.03 972.61C1290.96 1052.97 1156.85 1127.55 974.934 1061.31C972.253 1060.33 969.289 1061.71 968.313 1064.39C967.337 1067.07 968.719 1070.04 971.399 1071.01C1158.26 1139.06 1296.36 1061.79 1438.11 981.601L1440.38 980.316C1581.68 900.382 1727.28 818.021 1931.63 866.991C1934.4 867.656 1937.19 865.946 1937.86 863.172C1938.52 860.398 1936.81 857.61 1934.04 856.945C1725.72 807.025 1576.98 891.173 1436.07 970.885L1433.03 972.61Z" fill="url(#paint6_linear_193_220)"/>
<path fill-rule="evenodd" clip-rule="evenodd" d="M1433.03 929.22C1290.96 1009.58 1156.85 1084.16 974.934 1017.92C972.253 1016.94 969.289 1018.32 968.313 1021C967.337 1023.68 968.719 1026.65 971.399 1027.62C1158.26 1095.67 1296.36 1018.4 1438.11 938.211L1440.38 936.926C1581.68 856.992 1727.28 774.631 1931.63 823.601C1934.4 824.266 1937.19 822.556 1937.86 819.782C1938.52 817.008 1936.81 814.22 1934.04 813.555C1725.72 763.635 1576.98 847.783 1436.07 927.495L1433.03 929.22Z" fill="url(#paint7_linear_193_220)"/>
<path fill-rule="evenodd" clip-rule="evenodd" d="M1433.03 885.83C1290.96 966.191 1156.85 1040.77 974.934 974.527C972.253 973.551 969.289 974.932 968.313 977.613C967.337 980.293 968.719 983.257 971.399 984.233C1158.26 1052.28 1296.36 975.008 1438.11 894.822L1440.38 893.536C1581.68 813.603 1727.28 731.241 1931.63 780.211C1934.4 780.876 1937.19 779.166 1937.86 776.392C1938.52 773.618 1936.81 770.83 1934.04 770.165C1725.72 720.245 1576.98 804.394 1436.07 884.106L1433.03 885.83Z" fill="url(#paint8_linear_193_220)"/>
<path fill-rule="evenodd" clip-rule="evenodd" d="M1433.03 842.44C1290.96 922.801 1156.85 997.382 974.934 931.137C972.253 930.161 969.289 931.542 968.313 934.223C967.337 936.903 968.719 939.867 971.399 940.843C1158.26 1008.89 1296.36 931.618 1438.11 851.431L1440.38 850.146C1581.68 770.213 1727.28 687.851 1931.63 736.821C1934.4 737.486 1937.19 735.776 1937.86 733.002C1938.52 730.228 1936.81 727.44 1934.04 726.775C1725.72 676.855 1576.98 761.003 1436.07 840.715L1433.03 842.44Z" fill="url(#paint9_linear_193_220)"/>
<path fill-rule="evenodd" clip-rule="evenodd" d="M1433.03 799.05C1290.96 879.411 1156.85 953.992 974.934 887.747C972.253 886.771 969.289 888.152 968.313 890.833C967.337 893.513 968.719 896.477 971.399 897.453C1158.26 965.499 1296.36 888.228 1438.11 808.042L1440.38 806.756C1581.68 726.823 1727.28 644.461 1931.63 693.431C1934.4 694.096 1937.19 692.386 1937.86 689.612C1938.52 686.838 1936.81 684.05 1934.04 683.385C1725.72 633.465 1576.98 717.614 1436.07 797.326L1433.03 799.05Z" fill="url(#paint10_linear_193_220)"/>
<path fill-rule="evenodd" clip-rule="evenodd" d="M1433.03 755.661C1290.96 836.021 1156.85 910.603 974.934 844.357C972.253 843.381 969.289 844.763 968.313 847.443C967.337 850.123 968.719 853.088 971.399 854.064C1158.26 922.11 1296.36 844.838 1438.11 764.652L1440.38 763.366C1581.68 683.433 1727.28 601.071 1931.63 650.041C1934.4 650.706 1937.19 648.996 1937.86 646.222C1938.52 643.448 1936.81 640.66 1934.04 639.996C1725.72 590.075 1576.98 674.224 1436.07 753.936L1433.03 755.661Z" fill="url(#paint11_linear_193_220)"/>
<defs>
<linearGradient id="paint0_linear_193_220" x1="-106.856" y1="286.53" x2="792.16" y2="676.053" gradientUnits="userSpaceOnUse">
<stop stop-color="#3C7FA9" stop-opacity="0.3"/>
<stop offset="1" stop-color="white" stop-opacity="0"/>
</linearGradient>
<linearGradient id="paint1_linear_193_220" x1="-106.856" y1="243.14" x2="792.16" y2="632.663" gradientUnits="userSpaceOnUse">
<stop stop-color="#3C7FA9" stop-opacity="0.3"/>
<stop offset="1" stop-color="white" stop-opacity="0"/>
</linearGradient>
<linearGradient id="paint2_linear_193_220" x1="-106.856" y1="199.751" x2="792.16" y2="589.273" gradientUnits="userSpaceOnUse">
<stop stop-color="#3C7FA9" stop-opacity="0.3"/>
<stop offset="1" stop-color="white" stop-opacity="0"/>
</linearGradient>
<linearGradient id="paint3_linear_193_220" x1="-106.856" y1="156.36" x2="792.16" y2="545.883" gradientUnits="userSpaceOnUse">
<stop stop-color="#3C7FA9" stop-opacity="0.3"/>
<stop offset="1" stop-color="white" stop-opacity="0"/>
</linearGradient>
<linearGradient id="paint4_linear_193_220" x1="-106.856" y1="112.971" x2="792.16" y2="502.493" gradientUnits="userSpaceOnUse">
<stop stop-color="#3C7FA9" stop-opacity="0.3"/>
<stop offset="1" stop-color="white" stop-opacity="0"/>
</linearGradient>
<linearGradient id="paint5_linear_193_220" x1="-106.856" y1="69.5808" x2="792.16" y2="459.104" gradientUnits="userSpaceOnUse">
<stop stop-color="#3C7FA9" stop-opacity="0.3"/>
<stop offset="1" stop-color="white" stop-opacity="0"/>
</linearGradient>
<linearGradient id="paint6_linear_193_220" x1="2030.86" y1="911.53" x2="1131.84" y2="1301.05" gradientUnits="userSpaceOnUse">
<stop stop-color="#3C7FA9" stop-opacity="0.3"/>
<stop offset="1" stop-color="white" stop-opacity="0"/>
</linearGradient>
<linearGradient id="paint7_linear_193_220" x1="2030.86" y1="868.14" x2="1131.84" y2="1257.66" gradientUnits="userSpaceOnUse">
<stop stop-color="#3C7FA9" stop-opacity="0.3"/>
<stop offset="1" stop-color="white" stop-opacity="0"/>
</linearGradient>
<linearGradient id="paint8_linear_193_220" x1="2030.86" y1="824.75" x2="1131.84" y2="1214.27" gradientUnits="userSpaceOnUse">
<stop stop-color="#3C7FA9" stop-opacity="0.3"/>
<stop offset="1" stop-color="white" stop-opacity="0"/>
</linearGradient>
<linearGradient id="paint9_linear_193_220" x1="2030.86" y1="781.36" x2="1131.84" y2="1170.88" gradientUnits="userSpaceOnUse">
<stop stop-color="#3C7FA9" stop-opacity="0.3"/>
<stop offset="1" stop-color="white" stop-opacity="0"/>
</linearGradient>
<linearGradient id="paint10_linear_193_220" x1="2030.86" y1="737.97" x2="1131.84" y2="1127.49" gradientUnits="userSpaceOnUse">
<stop stop-color="#3C7FA9" stop-opacity="0.3"/>
<stop offset="1" stop-color="white" stop-opacity="0"/>
</linearGradient>
<linearGradient id="paint11_linear_193_220" x1="2030.86" y1="694.581" x2="1131.84" y2="1084.1" gradientUnits="userSpaceOnUse">
<stop stop-color="#3C7FA9" stop-opacity="0.3"/>
<stop offset="1" stop-color="white" stop-opacity="0"/>
</linearGradient>
</defs>
</svg>
